<?xml version="1.0" encoding="UTF-8"?>
<svg width="74px" height="74px" viewBox="0 0 74 74" version="1.1" xmlns="http://www.w3.org/2000/svg" xmlns:xlink="http://www.w3.org/1999/xlink">
    <!-- Generator: Sketch 60 (88103) - https://sketch.com -->
    <title>BOT</title>
    <desc>Created with Sketch.</desc>
    <defs>
        <circle id="path-1" cx="37" cy="37" r="37"></circle>
    </defs>
    <g id="Branding" stroke="none" stroke-width="1" fill="none" fill-rule="evenodd">
        <g id="Artboard" transform="translate(-134.000000, -10.000000)">
            <g id="BOT" transform="translate(134.000000, 10.000000)">
                <mask id="mask-2" fill="white">
                    <use xlink:href="#path-1"></use>
                </mask>
                <use id="Mask" fill="#002B66" xlink:href="#path-1"></use>
                <g mask="url(#mask-2)">
                    <g transform="translate(15.000000, 8.000000)">
                        <g id="Group-2">
                            <path d="M43.63,31.29 L43.63,26.1 C43.63,26.1 43.19,14.56 32.46,9.76 L30.86,9.1 C27.9511728,8.17196617 24.9131602,7.71288871 21.86,7.74 C18.8371022,7.65136578 15.8227862,8.10520662 12.96,9.08 L11.25,9.73 C0.56,14.84 0,26.1 0,26.1 C0,26.59 0,30.36 0,31.25 C0,41.58 0,73.16 0,73.16 L43.63,73.16 L43.63,31.29 Z" id="Path" fill="#E4EFFF" fill-rule="nonzero"></path>
                            <path d="M22.69,10.1 C22.6926722,10.3324661 22.6021928,10.5563317 22.4387456,10.7216576 C22.2752984,10.8869835 22.0524815,10.98 21.82,10.98 L21.82,10.98 C21.5875185,10.98 21.3647016,10.8869835 21.2012544,10.7216576 C21.0378072,10.5563317 20.9473278,10.3324661 20.95,10.1 L20.95,3.19 C20.95,2.70951227 21.3395123,2.32 21.82,2.32 L21.82,2.32 C22.3004877,2.32 22.69,2.70951227 22.69,3.19 L22.69,10.1 Z" id="Path" fill="#E4EFFF" fill-rule="nonzero"></path>
                            <path d="M11.46,10.25 C11.5446696,10.4649846 11.7113811,10.6374579 11.923366,10.7293806 C12.1353508,10.8213032 12.3751948,10.8251239 12.59,10.74 L12.59,10.74 C12.8049846,10.6553304 12.9774579,10.4886189 13.0693806,10.276634 C13.1613032,10.0646492 13.1651239,9.82480518 13.08,9.61 L10.58,3.18 C10.4953304,2.96501536 10.3286189,2.79254207 10.116634,2.70061944 C9.90464921,2.60869682 9.66480518,2.60487611 9.45,2.69 L9.45,2.69 C9.00243526,2.86663227 8.77971395,3.36998243 8.95,3.82 L11.46,10.25 Z" id="Path" fill="#E4EFFF" fill-rule="nonzero"></path>
                            <circle id="Oval" fill="#E4EFFF" fill-rule="nonzero" cx="9.35" cy="2.64" r="2.64"></circle>
                            <path d="M32.28,10.31 C32.1953304,10.5249846 32.0286189,10.6974579 31.816634,10.7893806 C31.6046492,10.8813032 31.3648052,10.8851239 31.15,10.8 L31.15,10.8 C30.9332009,10.7172829 30.758429,10.5513859 30.664536,10.3391876 C30.570643,10.1269894 30.5654099,9.88607521 30.65,9.67 L33.16,3.24 C33.2427171,3.02320086 33.4086141,2.848429 33.6208124,2.75453597 C33.8330106,2.66064295 34.0739248,2.65540986 34.29,2.74 L34.29,2.74 C34.5067991,2.82271712 34.681571,2.98861414 34.775464,3.20081238 C34.869357,3.41301061 34.8745901,3.65392479 34.79,3.87 L32.28,10.31 Z" id="Path" fill="#E4EFFF" fill-rule="nonzero"></path>
                            <circle id="Oval" fill="#E4EFFF" fill-rule="nonzero" cx="34.28" cy="2.64" r="2.64"></circle>
                        </g>
                        <g id="Group-3" transform="translate(8.149996, 20.490000)">
                            <ellipse id="Oval" fill="#002B66" fill-rule="nonzero" cx="5.9500038" cy="2.61" rx="2.62" ry="2.61"></ellipse>
                            <ellipse id="Oval" fill="#002B66" fill-rule="nonzero" cx="21.1800038" cy="2.61" rx="2.62" ry="2.61"></ellipse>
                            <path d="M27.3300076,6.44 C27.3326596,9.93371467 25.9459629,13.285099 23.4755328,15.755529 C21.0051028,18.2259591 17.6537185,19.6126558 14.1600038,19.6100038 L13.1600038,19.6100038 C9.6680215,19.6100038 6.31920765,18.2221324 3.85094125,15.7519904 C1.38267485,13.2818484 -0.00264967711,9.9319813 -3.55271368e-15,6.44" id="Path" stroke="#002B66" stroke-width="2" stroke-linecap="round"></path>
                        </g>
                    </g>
                </g>
            </g>
        </g>
    </g>
</svg>