<?xml version="1.0" encoding="UTF-8"?>
<svg width="74px" height="74px" viewBox="0 0 74 74" version="1.1" xmlns="http://www.w3.org/2000/svg" xmlns:xlink="http://www.w3.org/1999/xlink">
    <!-- Generator: Sketch 60 (88103) - https://sketch.com -->
    <title>Group 5</title>
    <desc>Created with Sketch.</desc>
    <defs>
        <path d="M21.3077341,9.5199996 C22.9002341,9.5199996 24.4385298,11.1610286 25.0636602,12.0491795 C25.0725775,12.0618055 25.0821503,12.075343 25.092327,12.0897246 L25.1237993,12.0508704 L25.1237993,12.0508704 C25.7469515,11.1631422 27.2848515,9.52211324 28.8777471,9.52211324 C30.6607932,9.52211324 32.117381,11.0354178 32.2125056,12.9164819 L32.2174471,13.1081124 C32.2174471,15.078869 30.7222775,16.6915752 28.8777471,16.6915752 C27.2848515,16.6915752 25.7469515,15.0505462 25.1237993,14.162818 C25.1150893,14.1504857 25.1057555,14.1372836 25.0958455,14.1232749 L25.0636602,14.1636635 L25.0636602,14.1636635 C24.440508,15.0513917 22.9018167,16.6932661 21.3093167,16.6932661 L21.3077341,15.4703148 C22.0487906,15.4736966 23.1305037,14.7939505 24.3819515,13.1076897 L24.3843254,13.1076897 L24.3849994,13.1059996 L24.3843254,13.1059987 C23.1305037,11.4201606 22.0487906,10.7404145 21.3077341,10.7437963 L21.3077341,10.7437963 C20.5666776,10.7404145 19.4853602,11.4201606 18.2339124,13.105576 L18.2315385,13.105576 L18.2299994,13.1059996 L18.2315385,13.1085351 C19.4853602,14.7939505 20.5666776,15.4736966 21.3077341,15.4703148 L21.3077341,15.4703148 L21.3077341,16.690307 C19.7148385,16.690307 18.1769385,15.049278 17.5537863,14.1615498 C17.544869,14.1489238 17.5352977,14.1353863 17.5251237,14.1210047 L17.4920646,14.1623953 L17.4920646,14.1623953 C16.8689124,15.0501235 15.3310124,16.6911545 13.7381168,16.6911545 C11.8951689,16.6932661 10.3999994,15.0784462 10.3999994,13.1089578 L10.4049408,12.914371 C10.5000655,11.0333596 11.9566533,9.52084506 13.7396994,9.52084506 C15.3333863,9.52084506 16.870495,11.161874 17.4920646,12.0517158 C17.5008817,12.0642 17.5103396,12.0775753 17.5203885,12.0917765 L17.5537863,12.0504477 L17.5537863,12.0504477 C18.1769385,11.1627195 19.7148385,9.52169052 21.3077341,9.52169052 Z M13.7381168,10.7429509 C12.7236646,10.748869 11.5984298,11.6484336 11.5620298,13.110226 L11.5620298,13.110226 C11.5984298,14.566523 12.7236646,15.4648193 13.7381168,15.4694694 C14.4791733,15.4728512 15.5604907,14.793105 16.8119385,13.1072669 L16.8143124,13.1072669 L16.8149994,13.1049996 L16.8143124,13.1047306 C15.5604907,11.4193152 14.4791733,10.739569 13.7381168,10.7429509 Z M28.8793297,10.7450645 C28.1382732,10.7416827 27.0569558,11.4214288 25.805508,13.1068442 L25.9750895,13.3296249 C27.1545544,14.8517978 28.1719576,15.4710065 28.8793297,15.4677784 C29.8937819,15.4631284 31.0190167,14.5699048 31.0554167,13.1081124 L31.0554167,13.1081124 C31.0190167,11.6505472 29.8937819,10.75056 28.8793297,10.7450645 Z" id="path-1"></path>
    </defs>
    <g id="Branding" stroke="none" stroke-width="1" fill="none" fill-rule="evenodd">
        <g id="Artboard" transform="translate(-42.000000, -10.000000)">
            <g id="Group-5" transform="translate(42.000000, 10.000000)">
                <circle id="Oval" fill="#EBF3FA" cx="37" cy="37" r="37"></circle>
                <g id="Group-4" transform="translate(16.000000, 15.000000)">
                    <g id="icons8-knowledge_sharing" transform="translate(0.000000, 0.720000)" fill-rule="nonzero">
                        <g id="Group" transform="translate(22.399998, 29.119998)">
                            <path d="M1.45599989,2.91199978 C3.47199973,2.35199982 9.51999927,0.78399994 10.4159992,0.559999957 C10.5279992,0.559999957 10.6399992,0.559999957 10.7519992,0.559999957 C11.7599991,0.559999957 12.879999,1.56799988 12.879999,2.46399981 L12.879999,2.5759998 L13.215999,3.80799971 L3.02399977,6.15999953 L1.45599989,2.91199978 Z" id="Path" fill="#F5CE85"></path>
                            <path d="M10.7519992,1.11999991 C11.5359991,1.11999991 12.3199991,1.79199986 12.3199991,2.46399981 L12.3199991,2.5759998 L12.3199991,2.68799979 L12.431999,3.35999974 L3.24799975,5.48799958 L2.23999983,3.35999974 C5.03999961,2.5759998 9.85599924,1.3439999 10.5279992,1.23199991 C10.6399992,1.11999991 10.7519992,1.11999991 10.7519992,1.11999991 M10.7519992,0 C10.6399992,0 10.4159992,0 10.3039992,0 C9.1839993,0.223999983 0.671999949,2.5759998 0.671999949,2.5759998 L2.68799979,6.83199948 L13.8879989,4.25599967 L13.439999,2.46399981 C13.439999,1.23199991 12.0959991,0 10.7519992,0 L10.7519992,0 Z" id="Shape" fill="#967A44"></path>
                        </g>
                        <g id="Group" transform="translate(2.240000, 27.999998)">
                            <path d="M17.2479987,13.9999989 C16.5759987,13.9999989 13.103999,12.767999 11.0879992,11.9839991 C9.96799924,11.5359991 9.0719993,11.1999991 8.51199935,11.0879992 C7.8399994,10.8639992 7.16799945,10.7519992 6.4959995,10.7519992 C5.03999961,10.7519992 3.80799971,11.1999991 3.13599976,11.6479991 L0.671999949,3.58399973 C1.67999987,3.13599976 4.25599967,2.01599985 5.82399955,1.3439999 C7.16799945,0.78399994 8.28799936,0.559999957 9.29599929,0.559999957 C10.5279992,0.559999957 11.4239991,0.895999931 12.655999,1.3439999 C14.4479989,2.01599985 16.6879987,2.79999979 20.8319984,2.79999979 C21.8399983,2.79999979 22.5119983,3.02399977 23.0719982,3.58399973 C23.6319982,4.25599967 23.7439982,5.15199961 23.6319982,5.93599955 L23.6319982,6.71999949 L24.4159981,6.4959995 C24.5279981,6.4959995 31.3599976,4.59199965 33.4879974,4.03199969 C33.7119974,3.9199997 34.1599974,3.9199997 34.4959974,3.9199997 C35.2799973,3.9199997 35.8399973,4.25599967 36.1759972,5.03999961 C36.3999972,5.48799958 36.3999972,5.93599955 36.1759972,6.4959995 C35.9519972,7.05599946 35.3919973,7.61599942 34.7199973,7.95199939 C33.5999974,8.51199935 18.7039986,13.9999989 17.2479987,13.9999989 Z" id="Path" fill="#F5CE85"></path>
                            <path d="M9.40799928,1.11999991 L9.40799928,1.11999991 C10.5279992,1.11999991 11.4239991,1.45599989 12.655999,1.90399985 C14.5599989,2.5759998 16.7999987,3.35999974 20.9439984,3.35999974 C21.7279983,3.35999974 22.3999983,3.58399973 22.7359983,4.03199969 C23.1839982,4.59199965 23.2959982,5.37599959 23.1839982,5.93599955 L22.9599982,7.61599942 L24.6399981,7.16799945 C24.7519981,7.16799945 31.5839976,5.2639996 33.5999974,4.70399964 C33.8239974,4.59199965 34.1599974,4.59199965 34.4959974,4.59199965 C35.0559973,4.59199965 35.3919973,4.81599963 35.7279973,5.37599959 C35.9519972,5.71199956 35.8399973,6.15999953 35.7279973,6.38399951 C35.5039973,6.83199948 35.1679973,7.27999944 34.6079973,7.50399942 C32.9279975,8.28799936 18.7039986,13.439999 17.2479987,13.551999 C16.5759987,13.551999 13.103999,12.2079991 11.1999991,11.5359991 C10.0799992,11.0879992 9.1839993,10.7519992 8.62399934,10.6399992 C7.95199939,10.4159992 7.16799945,10.3039992 6.38399951,10.3039992 C5.15199961,10.3039992 4.14399968,10.6399992 3.35999974,10.9759992 L1.23199991,4.03199969 C2.46399981,3.47199973 4.59199965,2.5759998 5.93599955,2.01599985 C7.39199943,1.3439999 8.39999936,1.11999991 9.40799928,1.11999991 M9.40799928,0 C8.39999936,0 7.16799945,0.223999983 5.71199956,0.78399994 C3.58399973,1.67999987 0,3.24799975 0,3.24799975 L2.79999979,12.431999 C2.79999979,12.431999 4.25599967,11.3119991 6.4959995,11.3119991 C7.05599946,11.3119991 7.72799941,11.4239991 8.39999936,11.6479991 C9.96799924,12.2079991 16.1279988,14.5599989 17.3599987,14.5599989 C18.9279985,14.5599989 33.9359974,8.95999931 35.1679973,8.39999936 C36.7359972,7.72799941 37.4079971,6.04799954 36.8479972,4.81599963 C36.2879972,3.69599972 35.3919973,3.47199973 34.6079973,3.47199973 C34.1599974,3.47199973 33.7119974,3.58399973 33.4879974,3.58399973 C31.3599976,4.03199969 24.4159981,6.04799954 24.4159981,6.04799954 C24.6399981,4.59199965 24.0799982,2.23999983 21.0559984,2.23999983 C14.2239989,2.23999983 12.543999,0 9.40799928,0 L9.40799928,0 Z" id="Shape" fill="#967A44"></path>
                        </g>
                        <path d="M21.2799984,36.9599972 C19.3759985,36.9599972 14.8959989,35.7279973 14.6719989,35.7279973 L15.0079988,34.6079973 C15.0079988,34.6079973 19.4879985,35.8399973 21.2799984,35.8399973 C24.8639981,35.8399973 25.3119981,34.7199973 25.4239981,33.5999974 L26.543998,33.7119974 C26.319998,36.0639972 24.8639981,36.9599972 21.2799984,36.9599972 Z" id="Path" fill="#967A44"></path>
                        <path d="M2.5759998,32.2559975 L4.36799967,31.4719976 L7.27999944,38.0799971 C7.27999944,38.0799971 5.59999957,38.639997 4.70399964,39.199997 L2.5759998,32.2559975 Z" id="Path" fill="#F5CE85"></path>
                        <g id="Group">
                            <g transform="translate(0.000000, 4.480000)">
                                <path d="M21.2799984,21.8399983 C20.4959984,21.8399983 19.7119985,21.5039984 19.1519985,20.9439984 L19.0399985,20.7199984 L2.23999983,20.7199984 C1.3439999,20.7199984 0.559999957,19.9359985 0.559999957,19.0399985 L0.559999957,2.23999983 C0.559999957,1.3439999 1.3439999,0.559999957 2.23999983,0.559999957 L40.3199969,0.559999957 C41.2159968,0.559999957 41.9999968,1.3439999 41.9999968,2.23999983 L41.9999968,19.0399985 C41.9999968,19.9359985 41.2159968,20.7199984 40.3199969,20.7199984 L23.5199982,20.7199984 L23.4079982,20.9439984 C22.8479982,21.5039984 22.0639983,21.8399983 21.2799984,21.8399983 Z" id="Path" fill="#8BB7F0"></path>
                                <path d="M40.3199969,1.11999991 C40.9919969,1.11999991 41.4399968,1.56799988 41.4399968,2.23999983 L41.4399968,19.0399985 C41.4399968,19.7119985 40.9919969,20.1599985 40.3199969,20.1599985 L23.7439982,20.1599985 L23.2959982,20.1599985 L22.9599982,20.4959984 C22.5119983,21.0559984 21.9519983,21.2799984 21.2799984,21.2799984 C20.6079984,21.2799984 20.0479985,21.0559984 19.5999985,20.4959984 L19.2639985,20.1599985 L18.8159986,20.1599985 L2.23999983,20.1599985 C1.56799988,20.1599985 1.11999991,19.7119985 1.11999991,19.0399985 L1.11999991,2.23999983 C1.11999991,1.56799988 1.56799988,1.11999991 2.23999983,1.11999991 L40.3199969,1.11999991 M40.3199969,0 L2.23999983,0 C1.00799992,0 0,1.00799992 0,2.23999983 L0,19.0399985 C0,20.2719984 1.00799992,21.2799984 2.23999983,21.2799984 L18.8159986,21.2799984 C19.3759985,21.9519983 20.2719984,22.3999983 21.2799984,22.3999983 C22.2879983,22.3999983 23.1839982,21.9519983 23.7439982,21.2799984 L40.3199969,21.2799984 C41.5519968,21.2799984 42.5599967,20.2719984 42.5599967,19.0399985 L42.5599967,2.23999983 C42.5599967,1.00799992 41.5519968,0 40.3199969,0 L40.3199969,0 Z" id="Shape" fill="#4E7AB5"></path>
                            </g>
                            <g transform="translate(2.240000, 0.000000)">
                                <path d="M19.0399985,23.5199982 C18.0319986,22.7359983 14.7839989,20.7199984 9.51999927,20.7199984 C4.92799962,20.7199984 2.01599985,22.1759983 0.559999957,23.0719982 L0.559999957,3.24799975 C1.3439999,2.68799979 4.36799967,0.559999957 9.51999927,0.559999957 C15.5679988,0.559999957 18.5919986,3.35999974 18.7039986,3.35999974 L19.0399985,3.69599972 L19.3759985,3.35999974 C19.3759985,3.35999974 22.5119983,0.559999957 28.56,0.559999957 C33.7119974,0.559999957 36.7359972,2.5759998 37.5199971,3.24799975 L37.5199971,23.1839982 C36.0639972,22.2879983 33.0399975,20.8319984 28.56,20.8319984 C23.4079982,20.7199984 20.1599985,22.7359983 19.0399985,23.5199982 Z" id="Path" fill="#FFFFFF"></path>
                                <path d="M28.5599978,1.11999991 C33.1519975,1.11999991 35.9519972,2.79999979 36.9599972,3.47199973 L36.9599972,22.1759983 C35.2799973,21.2799984 32.3679975,20.1599985 28.5599978,20.1599985 C23.7439982,20.1599985 20.3839984,21.8399983 19.0399985,22.8479982 C17.6959986,21.9519983 14.5599989,20.1599985 9.51999927,20.1599985 C5.59999957,20.1599985 2.79999979,21.2799984 1.11999991,22.1759983 L1.11999991,3.47199973 C2.12799984,2.79999979 4.92799962,1.11999991 9.51999927,1.11999991 C15.2319988,1.11999991 18.2559986,3.69599972 18.2559986,3.80799971 L19.0399985,4.47999966 L19.8239985,3.80799971 C19.8239985,3.80799971 22.8479982,1.11999991 28.5599978,1.11999991 M28.5599978,0 C22.2879983,0 19.0399985,2.91199978 19.0399985,2.91199978 C19.0399985,2.91199978 15.7919988,0 9.51999927,0 C3.24799975,0 0,2.91199978 0,2.91199978 L0,24.1919981 C0,24.1919981 3.13599976,21.2799984 9.51999927,21.2799984 C15.9039988,21.2799984 19.0399985,24.1919981 19.0399985,24.1919981 C19.0399985,24.1919981 22.3999983,21.2799984 28.5599978,21.2799984 C34.7199973,21.2799984 38.0799971,24.1919981 38.0799971,24.1919981 L38.0799971,2.91199978 C38.0799971,2.91199978 34.8319973,0 28.5599978,0 L28.5599978,0 Z" id="Shape" fill="#788B9C"></path>
                            </g>
                            <path d="M22.0639983,3.80799971 L21.2799984,4.47999966 L21.2799984,22.8479982 C21.2799984,22.8479982 21.2799984,22.8479982 21.2799984,22.8479982 C22.6239983,21.9519983 25.871998,20.1599985 30.7999976,20.1599985 C34.6079973,20.1599985 37.5199971,21.2799984 39.199997,22.1759983 L39.199997,3.47199973 C38.1919971,2.79999979 35.3919973,1.11999991 30.7999976,1.11999991 C25.0879981,1.11999991 22.0639983,3.80799971 22.0639983,3.80799971 Z" id="Path" fill="#E1EBF2"></path>
                        </g>
                    </g>
                    <g id="Rectangle" transform="translate(10.399999, 9.520000)"></g>
                    <mask id="mask-2" fill="white">
                        <use xlink:href="#path-1"></use>
                    </mask>
                    <use id="Mask" fill="#E1EBF2" xlink:href="#path-1"></use>
                    <rect id="Rectangle" fill="#FFFFFF" mask="url(#mask-2)" x="21.3199993" y="6.39999962" width="18.7199999" height="16.6399999"></rect>
                </g>
            </g>
        </g>
    </g>
</svg>